<?xml version="1.0" encoding="utf-8"?>
<!-- Generator: Adobe Illustrator 18.1.1, SVG Export Plug-In . SVG Version: 6.00 Build 0)  -->
<svg version="1.1" id="Layer_1" xmlns="http://www.w3.org/2000/svg" xmlns:xlink="http://www.w3.org/1999/xlink" x="0px" y="0px"
	 viewBox="0 0 105.7 68.9" enable-background="new 0 0 105.7 68.9" xml:space="preserve">
<g id="_x0A_flash_x0A_">
	<g>
		<path fill-rule="evenodd" clip-rule="evenodd" d="M41.5,46.1c-0.7-1.4-1.3-2.7-2-4.1c0-0.1-0.1-0.2-0.1-0.3
			c-0.1-0.1,0-0.2,0.1-0.3c0.2,0,0.3-0.1,0.5-0.1c0.5,0,1-0.3,1.6-0.3c0.1,0,0.1-0.1,0.2-0.1c0.1-0.1,0.2-0.2,0.1-0.3
			c0-0.1,0-0.1-0.1-0.2c-0.3-0.6,1.5-3,1.1-3.6c-0.8-1.2-3.7-0.6-4.5-1.9c0,0-0.1-0.1-0.1-0.1c-0.1-0.1,0-0.2,0.1-0.2
			c0.2-0.1,0.4-0.1,0.6-0.2c0.6-0.2,1.2-0.4,1.8-0.5c0.2-0.1,0.3-0.2,0.3-0.4c0-0.3-0.1-0.5-0.2-0.7c-0.4-0.7,0.9-4.9,0.5-5.5
			c-0.9-1.3-3.7,0.9-4.5-0.5c-0.2-0.3-0.4-0.6-0.5-1c-0.1-0.4-0.4-0.5-0.8-0.6c-0.2,0-0.3,0-0.6,0c-0.5,0.1-1.2,0.1-1.8,0.2
			c-0.8,0.1-1.6,0.2-2.5,0.4c-0.8,0.1-1.6,0.3-2.4,0.5c-0.2,0-0.4,0.1-0.6,0.2c-0.2,0.1-0.3,0.3-0.1,0.5c0.3,0.3,0.5,0.6,0.8,1
			c0.2,0.2,0.4,0.4,0.6,0.6c0.2,0.2,0.3,0.3,0.4,0.5c0.1,0.1,0.1,0.2,0,0.3c-0.4,0.1-0.9,0.3-1.4,0.3c0,0-0.1,0-0.1,0
			c-0.5,0.1-0.7,0.3-0.7,0.8c0,0.1,0.1,0.3,0.1,0.4c0.7,0.9,1.4,1.8,2.4,2.5c0.2,0.1,0.3,0.3,0.5,0.4c0.6,0.6,1.1,1.2,1.7,1.9
			c0,0.1,0,0.1,0,0.1c-0.3,0.1-0.7,0.2-1,0.2c-0.5,0.1-1.1,0.3-1.6,0.4c-0.2,0.1-0.4,0.2-0.5,0.4c-0.1,0.2-0.1,0.5,0.1,0.6
			c0.8,0.4,1.4,1,1.9,1.7c0.5,0.6-2,1.3-1.4,1.8c0.5,0.5,1.9,2.2,2.4,2.6c0.4,0.4,2.6,1.7,3.1,2c1,0.7,3.6-0.6,1.1-1.9
			c-1,0-2,0-2.4-0.5c-0.6-0.7-1.3-1.2-2-1.9c-0.4-0.4,1.1-2.3,0.8-2.7c-0.2-0.2-0.4-0.4-0.6-0.7c0.2-0.3,0.5-0.3,0.8-0.5
			c0.1-0.1,0.3-0.2,0.5-0.2c0.4-0.1,0.8-0.2,1.2-0.4c0.1,0,0.2-0.2,0.1-0.3c-0.1-0.1-0.1-0.3-0.2-0.4c-0.1-0.1-0.2-0.2-0.3-0.3
			c-0.4-0.6-0.8-1.1-1.3-1.7c-0.7-0.9-1.4-1.8-2.2-2.6c-0.1-0.1-0.2-0.3-0.3-0.4c-0.1-0.1,0-0.2,0.1-0.2c0.4-0.1,0.8-0.2,1.2-0.3
			c0.5-0.1,0.5-0.2,0.3-0.6c0-0.1-0.1-0.2-0.1-0.3c-0.3-0.4-0.6-0.8-1-1.2c-0.2-0.2-0.3-0.3-0.4-0.5c-0.1-0.1-0.1-0.2,0-0.2
			c1.1-0.3,2.2-0.7,3.4-0.9c0.2,0,0.3,0,0.6-0.1c0.2,0,0.4,0.1,0.5,0.3c0.1,0.3,0.3,0.5,0.4,0.8c0.7,1.4,3.6,0.8,4.4,2.1
			c0.2,0.3-1.7,2.5-1.5,2.8c0.1,0.1,0,0.2-0.1,0.2c-0.2,0.1-0.4,0.2-0.5,0.2c-0.4,0.2-0.8,0.4-1.2,0.6c-0.3,0.2-0.4,0.5-0.2,0.8
			c0.1,0.1,0.2,0.2,0.2,0.4c0.2,0.5,0.5,0.9,0.8,1.3c0.3,0.4,0.5,0.7,0.6,1.2c0.2,0.6,2.9,0.1,3.2,0.6c0.3,0.5-2.2,1.7-2.7,1.8
			c-0.1,0-0.3,0.1-0.4,0.1c-0.2,0.1-0.4,0.2-0.5,0.3c-0.3,0.2-0.3,0.5-0.1,0.8c0.3,0.3,0.5,0.6,0.7,0.9c0.2,0.4,0.4,0.9,0.5,1.4
			c0.1,0.2,0.2,0.5,0.2,0.7c0,0,0,0.1-0.1,0.1c0,0,0,0-0.1,0c-0.1-0.1-0.3-0.2-0.4-0.3c-0.4-0.3-1.1-0.4-1.8-0.4
			c0.5,0.2,1.1,0.5,1.4,0.7c1,1,1.6,2.4,2.7,3.3c0.3,0.3,0.7,0.5,1,0.7c0.2,0.2,0.5,0.2,0.8,0.2c0.3,0,0.5-0.2,0.4-0.5
			c0-0.1-0.1-0.3-0.1-0.4C42,47.1,41.8,46.6,41.5,46.1z M35.4,43.4c0.2,0.1,0.3,0.1,0.5,0.2c0.1,0,0.2,0,0.2,0
			C35.5,43.4,35,43.3,35.4,43.4z"/>
	</g>
</g>
<g id="_x0A_browser01">
	<g>
		<path fill-rule="evenodd" clip-rule="evenodd" d="M82.7,42.6c0-6.1,0-12.3,0-18.4h-0.1V4c0-0.2,0-0.5,0-0.7
			C82.5,2,81.7,1.1,80.4,1c-0.5,0-1,0-1.5,0C74,1,69.2,1,64.4,1.1c-2.6,0.1-5.1,0.3-7.7,0.4c-6.6,0.3-13.3,0-19.9,0.4
			c-3.3,0.2-6.6,0.6-9.9,0.5c-3.2-0.1-6.3,0.1-9.5,0.1c-0.7,0-1.5,0.1-2.2,0.4c-0.8,0.3-1.5,0.9-1.6,1.8c-0.2,1.9-0.6,3.7-0.4,5.7
			c0.2,2.6,0.2,5.1,0.2,7.7c-0.1,7.7-0.1,15.4-0.1,23.2c0,0.8,0.1,1.7,0.1,2.5c0.2,3.1,0.5,6.1,0.7,9.2c0.1,2.2,0.1,4.3,0.1,6.5
			c0,1,0,2-0.3,3c-0.2,0.7-0.2,1.5-0.2,2.2c0,1.3,1.1,2.3,2.5,2.3c0.4,0,0.8,0,1.2-0.2c0.6-0.2,1.1-0.1,1.7-0.1
			c1.5,0.1,3,0.2,4.5,0.3c8,0.2,15.9-0.1,23.9,0.3c5.8,0.3,11.6,0.1,17.4,0.1c0.9,0,1.8,0,2.7,0.1c1,0.1,1.9,0.4,2.9,0.6
			c2.5,0.4,5,0.4,7.5,0.3c1.3-0.1,2.2-0.6,2.8-1.8c0.2-0.4,0.3-0.8,0.6-1.1c1.1-1,1.2-2.3,1.2-3.7c0-1.7,0.1-3.5,0.2-5.2
			c0.1-1.2,0.2-2.3,0.2-3.5C82.9,49.6,82.7,46.1,82.7,42.6z M77.9,37c-0.2,6.1-0.2,12.1-0.3,18.2c0,2.1-0.3,4.3-0.6,6.4
			c0,0.2-0.4,0.6-0.6,0.6c-2.3,0.2-4.7,0.5-6.9,0c-1.4-0.3-2.8-0.4-4.2-0.4c-4.8,0-9.6,0-14.4,0c-2.3,0-4.6,0.1-7-0.3
			c-0.8-0.1-1.7-0.1-2.5-0.1c-5.4,0-10.8,0-16.2,0c-0.7,0-1.3,0-2-0.1c-0.2,0-0.5-0.3-0.5-0.4c-0.2-1.1-0.4-2.1-0.5-3.2
			c-0.2-1.2-0.3-2.5-0.4-3.7c-0.3-3.4-0.7-6.8-0.6-10.2c0.1-2.6,0-5.1,0-7.7h-0.1v-12c0-0.3,0-0.7,0-1c0-0.5,0.3-0.7,0.8-0.7
			c2.9,0,5.8,0,8.7-0.1c1.7,0,3.3-0.2,5-0.3c0.7,0,1.5-0.1,2.2-0.1c5.1,0,10.3-0.1,15.4,0c3.3,0.1,6.6-0.5,9.9-0.8
			c0.8-0.1,1.6-0.2,2.5-0.2c2.7,0,5.5,0,8.2,0c1.2,0,2.3,0.2,3.5,0.3c0.4,0,0.6,0.3,0.6,0.7c0,0.5,0,1,0,1.5
			C78,28.1,78.1,32.5,77.9,37z M78.1,14.8c0,0.5-0.3,0.7-0.8,0.8c-1.8,0.1-3.6,0.2-5.5,0.3c-1.6,0.1-3.2,0.1-4.7,0.1
			c-3.1-0.1-6.1,0.3-9.2,0.7c-1.1,0.1-2.1,0.3-3.2,0.3c-2.9,0-5.8,0-8.7,0v0.1c-3,0-6,0-9,0c-2,0-4,0.3-6,0.4c-3,0.1-6,0.1-9,0.1
			c-1.1,0-1.3-0.1-1.3-1.3c-0.1-2.6-0.3-5.1-0.8-7.7c-0.1-0.6,0.1-0.9,0.8-1c0.5,0,1,0,1.5,0c2.8,0,5.6-0.1,8.5-0.1
			c1.4,0,2.8-0.3,4.2-0.3C37.2,7,39.4,7,41.7,7c4.6,0,9.1,0,13.7-0.1c1.5,0,3-0.2,4.5-0.3c0.9-0.1,1.8-0.1,2.7-0.1c4.5,0,9,0,13.4,0
			c0.4,0,0.8,0,1.2,0.1c0.6,0.1,0.9,0.4,0.9,1C78.1,10,78.1,12.4,78.1,14.8z M69,49.8c-0.2,0-0.5,0-0.7,0c-2.4,0.1-4.8-0.2-7.2,0.4
			c-0.5,0.1-1,0.1-1.5,0.1c-8.5,0-16.9,0-25.4,0c-1.1,0-2.2,0-3.2,0.1c-0.8,0.1-1.6,0.3-2.4,0.5c-0.1,0-0.3,0.2-0.3,0.3
			c0,0.2,0.1,0.5,0.2,0.7c0.6,0.6,1.4,0.8,2.3,0.9c2.1,0.2,4.1,0.4,6.2,0.4c5,0.1,10,0,14.9,0v0.1c5.1,0,10.3,0,15.4,0
			c0.6,0,1.2,0,1.7,0c0.9-0.1,1.6-1,1.6-1.9C70.5,50.5,70,49.9,69,49.8z M69.1,56.5c-1.4-0.1-2.8-0.1-4.2-0.1c-4.8,0-9.6,0-14.4,0
			c0,0,0,0.1,0,0.1c-5.3-0.1-10.6-0.1-15.9-0.2c-1,0-2,0-3,0.1c-0.6,0.1-1.3,0.3-1.9,0.5c-0.6,0.2-0.6,1.1,0,1.4
			c0.3,0.2,0.6,0.4,0.9,0.4c1,0.2,2,0.3,3,0.4c2.5,0.1,5,0.2,7.5,0.2c6.1,0,12.1,0,18.2,0c3.2,0,6.3-0.1,9.5-0.1
			c0.4,0,0.8-0.1,1.2-0.2c0.8-0.3,1.1-1.5,0.5-2.1C70,56.7,69.5,56.5,69.1,56.5z M70.5,33.6c-1.3-0.2-2.7-0.3-4.1-0.4
			c-2.7-0.2-5.5-0.3-8.3-0.4c-2.4-0.1-4.8-0.1-7.2,0.2c-0.8,0.1-1.5,0.4-2.1,0.8c-0.9,0.8-0.7,1.8,0.4,2.3c0.7,0.3,1.5,0.4,2.3,0.4
			c2.9,0,5.8,0,8.6,0v0.1c2.4,0,4.8,0,7.3,0c0.9,0,1.8,0,2.7-0.1c1-0.1,1.6-0.7,1.6-1.4C72,34.3,71.5,33.7,70.5,33.6z M49.2,30.6
			c1.3,0.2,2.6,0.3,3.9,0.4c4.7,0.1,9.3,0.1,14,0.1c0.7,0,1.3,0,2-0.1c1.1-0.1,2.1-0.9,2.2-1.6c0.1-0.7-0.6-1.6-1.7-1.8
			c-0.8-0.2-1.8-0.3-2.7-0.3c-2.5,0-5.1,0-7.6,0v0c-2.7,0-5.3,0-8,0c-0.9,0-1.9,0.1-2.7,0.4c-1,0.3-1.5,0.9-1.4,1.6
			C47.3,29.9,48,30.4,49.2,30.6z M55.7,9.1c-2-0.9-3.8,0-4.4,2.1c-0.1,0.3-0.1,0.7,0,1c0.4,1.5,1.6,2.3,3.2,2
			c0.4-0.1,0.8-0.1,1.2-0.3c0.4-0.2,0.7-0.5,0.9-0.8c0.3-0.5,0.3-1.1,0.5-1.6c-0.2-0.6-0.3-1.2-0.6-1.7C56.3,9.5,56,9.3,55.7,9.1z
			 M75.1,8c-1.4-0.2-2.5,0.3-2.9,1.4c0,0.1-0.1,0.2-0.1,0.2C72,10.4,72,11.2,72.3,12c0.5,1.1,1.3,1.6,2.5,1.5c1.1-0.1,2-0.8,2.2-2
			c0.1-0.3,0.1-0.7,0.1-0.8c0-0.3,0-0.5,0-0.6C77.1,8.9,76.3,8.1,75.1,8z M64.5,8.5c-1.2,0.1-2.3,1.4-2.3,2.8c0,1.3,1,2.2,2.4,2.2
			c1.6,0,2.6-1,2.6-2.4C67.2,9.8,65.8,8.5,64.5,8.5z"/>
	</g>
</g>
</svg>
