<?xml version="1.0" encoding="utf-8"?>
<!-- Generator: Adobe Illustrator 18.1.1, SVG Export Plug-In . SVG Version: 6.00 Build 0)  -->
<svg version="1.1" id="Layer_1" xmlns="http://www.w3.org/2000/svg" xmlns:xlink="http://www.w3.org/1999/xlink" x="0px" y="0px"
	 viewBox="0 0 105.7 68.9" enable-background="new 0 0 105.7 68.9" xml:space="preserve">
<g id="_x0A_tablet-charts04">
	<g>
		<path fill-rule="evenodd" clip-rule="evenodd" d="M95.6,48.3c0.1-4.3,0.2-8.5,0.3-12.8C96,28.9,96,22.3,96,15.6
			c0-0.6,0-1.1-0.1-1.7c-0.2-1.9-0.4-3.8-1.1-5.6c-1-2.6-3.6-4.4-6.4-4.4c-2.4,0-4.7,0-7.1,0c-5.8,0-11.5,0.2-17.3,0
			c-8.2-0.2-16.4,0.1-24.6,0c-0.8,0-1.6,0.1-2.4,0.1c-1.3,0.1-2.5,0.3-3.8,0.3c-3.5,0-6.9,0.1-10.4-0.3c-0.2,0-0.5,0-0.7,0
			c-1.6,0.2-3.1,0.5-4.7,0.8c-0.8,0.1-1.5,0.5-2,1.2c-0.8,1.1-1.5,2.2-1.5,3.7c0,2.8-0.3,5.5-0.4,8.3c-0.2,4.6-0.2,9.2-0.3,13.7
			c0,0,0.1,0,0.1,0c0.1,4.3,0,8.7,0.2,13c0.2,4.3,0.4,8.5,0.5,12.8c0,0.6,0.2,1.2,0.2,1.9c0.1,1,0.6,1.8,1.5,2.3
			c0.1,0.1,0.3,0.2,0.4,0.3c1.2,0.7,2.4,1.2,3.7,1.5c1.6,0.3,3.2,0.9,4.9,0.8c8.9-0.1,17.8-0.1,26.8-0.2c1.4,0,2.8-0.2,4.3-0.2
			c2.7,0,5.4-0.1,8,0.3c6.3,0,12.6,0,18.9,0.1c0.5,0,1,0,1.4-0.2c0.9-0.3,1.9-0.4,2.8-0.3c1.7,0.1,3.3-0.4,4.9-0.7
			c0.7-0.1,1.3-0.5,1.9-0.8c0.6-0.4,1-1,1.1-1.7c0.3-2.5,0.6-5,0.9-7.5c0-0.4,0.1-0.8-0.1-1.2C95.4,50.7,95.6,49.5,95.6,48.3z
			 M83.5,56.2c-0.1,1-0.7,1.4-1.6,1.3c-2.2-0.1-4.4,0-6.6,0.4c-0.2,0-0.3,0-0.5,0c-4.8,0-9.6,0.6-14.4,0.5
			c-3.6-0.1-7.3-0.2-10.9,0.1c-4.1,0.3-8.2,0.2-12.3,0.3C34.6,59,32,59,29.4,58.7c-1.6-0.2-3.2-0.1-4.7-0.1c-0.6,0-1.3,0-1.9-0.1
			c-1.7-0.3-2.5-1.4-2.7-3.1c-0.2-3.5-0.5-6.9-0.8-10.4c-0.1-1.1-0.1-2.2-0.1-3.3c0-3,0-6,0.1-9c0.1-4.7,0.3-9.5,0.5-14.2
			c0.1-2,0.3-4.1,0.5-6.1c0-0.3,0-0.6,0.1-0.9c0.3-1.7,0.7-2.1,2.5-2.1c7,0,14.1,0,21.1,0c0.9,0,1.7,0,2.6,0v0.1
			c7.6,0,15.2-0.1,22.7,0c3.6,0.1,7.2,0.2,10.9,0.2c0.9,0,1.5,0.4,2,1.1c0.2,0.4,0.5,0.8,0.6,1.3c0.2,1.5,0.4,3,0.5,4.5
			c0.1,1.6,0,3.2,0.4,4.7c0.1,0.6,0.1,1.3,0.1,1.9c0,10,0.1,20.1,0.1,30.1C83.7,54.2,83.7,55.2,83.5,56.2z M91.5,38.7
			c-0.4,0.2-0.9,0.4-1.3,0.3c-1.7-0.3-2.9-1.3-3.4-3c-0.5-1.8,0.6-3.7,2.4-4.2c2.2-0.6,4,0.6,4.1,2.8c0,0.2,0,0.5,0,0.7
			C93.4,36.9,92.8,38,91.5,38.7z M55.7,36.1c0-3.9,0-7.7,0-11.6c0-0.3,0-0.6,0-0.9c-0.1-0.8-0.8-1.4-1.6-1.5c-0.6,0-1.3,0-1.9,0.1
			c-1.3,0.1-2.5,0.4-3.8,0.4c-2.3,0-2.6,1-2.6,2.7c0,4.8,0,9.6-0.1,14.4c0,1.3-0.2,2.5-0.2,3.8c0,0.8-0.1,1.6-0.1,2.4
			c0.1,0.8,0.2,1.8,0.8,2.4c0.5,0.4,0.9,0.8,1,1.5c0.1,0.5,0.6,0.7,1.1,0.8c0.5,0.1,1,0.1,1.4,0.2c1.5,0.4,2.8,0.1,4.2-0.4
			c1.1-0.4,1.7-1.1,1.7-2.3c0-1.6,0.1-3.2,0.2-4.7c0-2.4,0-4.7,0-7.1H55.7z M52.2,47.7c-0.6,0-1.1,0-1.7,0c-2.1-0.1-2-0.1-1.8-2.3
			c0.2-1.4,0.3-2.8,0.3-4.2c0-2.8,0-5.5,0-8.3c0-1.7,0-3.5-0.3-5.2c-0.1-0.6-0.1-1.3-0.1-1.9c0-0.2,0.3-0.3,0.4-0.5
			c0.1,0,0.2,0,0.2,0c4.2,0.1,3.5-1,3.5,3.5c0,2.3,0,4.6,0,6.9h0c0,2.9,0,5.8,0,8.8c0,0.7,0.1,1.4,0.2,2.1
			C53.3,47.5,53.1,47.7,52.2,47.7z M70.2,45.7c0.1-0.4,0.2-0.8,0.1-1.2C69.9,43,70,41.4,70,39.9c0-2.6,0-5.2-0.1-7.8
			c0-0.9-0.2-1.7-0.3-2.6c-0.3-1.3-0.7-1.7-2.1-1.8c-0.3,0-0.6,0-1.4,0c-0.3,0-1.1,0-1.9,0.2c-1.9,0.6-3,1.4-2.9,3.4
			c0,0.1,0,0.2,0,0.2c0.1,4.9,0.1,9.8,0.2,14.7c0,0.7,0.2,1.4,0.3,2.1c0.1,0.3,0.2,0.6,0.4,0.8c1.1,1.2,2.3,2.2,4.1,1.6
			c0.4-0.1,0.8-0.1,1.2-0.2c0.5-0.1,0.9-0.2,1.3-0.4c1.2-0.6,1.6-1.4,1.3-2.7C70.1,46.8,70,46.3,70.2,45.7z M64.6,43.2
			c-0.1-0.1-0.2-0.2-0.2-0.3c0-0.3,0.4-0.8,0.6-0.8c0,0,0.1,0.1,0.2,0.3C65,42.6,64.8,42.9,64.6,43.2z M42.1,43
			c-0.1-1.8-0.1-3.6-0.2-5.4c-0.1-1.9-0.3-3.8-0.4-5.7c0-0.1,0-0.2,0-0.2c-0.2-1.3-0.9-1.9-2.2-2c-0.6,0-1.3,0-1.9,0.1
			c-1.4,0.3-2.8,0.4-4.2,0.4c-0.5,0-0.9,0.1-1.4,0.2c-0.8,0.2-1.1,0.8-1,1.6c0.1,0.7,0.3,1.4,0.3,2.1c0.2,3.7,0.5,7.4,0.6,11.1
			c0,1.6,0.3,3.1,1.3,4.5c0.7,1,1,1.2,2.1,1.1c1.2-0.1,2.3-0.3,3.5-0.4c0.6-0.1,1.3,0,1.9-0.2c1-0.2,1.7-0.6,1.7-1.9
			C42,46.6,42,44.8,42.1,43L42.1,43z M36.6,47.5c-0.3,0.1-0.6,0-0.9,0.1c-0.4,0-0.7-0.3-0.7-0.7c0-0.5,0-1.1-0.1-1.7
			c-0.1-3.3-0.4-6.6-1.3-9.8c-0.1-0.4-0.1-0.8-0.2-1.2c-0.1-0.5,0.1-0.8,0.6-0.9c1.3-0.2,2.6-0.5,4-0.6c0.3,0,0.6,0.2,0.6,0.6
			c0,0.3,0,0.6,0.1,0.9c0.1,3.2,0.3,6.4,0.4,9.7c0,0.3,0,0.6,0,0.9C39,47.7,39.3,47,36.6,47.5z M64.6,24.4c0.6-0.6,1.3-1.2,1.9-1.8
			c0.8-0.7,1.5-1.3,2.3-2.1c0.4-0.4,0.7-0.9,1-1.3c0.1-0.2,0.1-0.4,0.1-0.8c-0.2-0.1-0.5-0.4-0.7-0.4c-0.3,0-0.6,0.2-0.9,0.3
			c-0.4,0.3-0.7,0.6-1.1,1c-0.3,0.3-0.6,0.6-0.9,0.8c-0.2,0.1-0.5,0.3-0.6,0.3c-0.2-0.2-0.4-0.5-0.4-0.8c-0.1-1.1-0.1-2.2-0.2-3.3
			c0-0.5-0.1-0.9-0.3-1.4c-0.1-0.4-0.5-0.6-0.9-0.6c-0.4,0-0.8,0.2-0.9,0.6c-0.1,0.3-0.2,0.6-0.2,0.9c-0.1,1.1-0.3,2.2-0.4,3.3
			c0,0.3-0.3,0.4-0.5,0.3c-0.1-0.1-0.2-0.2-0.4-0.3c-0.1-0.1-0.2-0.2-0.4-0.3c-0.4-0.2-0.7-0.3-1.1-0.1c-0.4,0.2-0.6,0.8-0.5,1.2
			c0.5,1.7,1.4,3.2,2.6,4.4C63,25.1,63.9,25,64.6,24.4z"/>
	</g>
</g>
</svg>
