<?xml version="1.0" encoding="utf-8"?>
<!-- Generator: Adobe Illustrator 18.1.1, SVG Export Plug-In . SVG Version: 6.00 Build 0)  -->
<svg version="1.1" id="Layer_1" xmlns="http://www.w3.org/2000/svg" xmlns:xlink="http://www.w3.org/1999/xlink" x="0px" y="0px"
	 viewBox="0 0 105.7 68.9" enable-background="new 0 0 105.7 68.9" xml:space="preserve">
<g id="_x0A_screen_x0A_">
	<g>
		<path fill-rule="evenodd" clip-rule="evenodd" d="M90.1,37.2c-0.3-4.4-0.4-8.8-0.5-13.2c-0.1-3.5-0.1-6.9-0.1-10.4
			c0-0.4,0-0.7-0.1-1.1c-0.1-1.3-0.2-2.6-0.3-4c-0.1-1.4-0.3-2.8-0.4-4.1c0-0.5-0.3-0.9-0.7-1c-0.5-0.2-1.1-0.4-1.7-0.5
			C85.1,2.9,84,2.8,82.9,3c-1.2,0.2-2.3,0.2-3.5,0.3c-1.2,0.1-2.3,0.2-3.5,0.3c-2.8,0.2-5.6,0.5-8.4,0.6c-4.3,0.1-8.7,0-13,0
			c-6.9,0-13.8-0.2-20.7,0.5c-1.2,0.1-2.5,0-3.8,0.1c-1.6,0.1-3.2,0.2-4.8,0.3c-1.6,0.1-3.2,0.3-4.8,0.4c-1,0-1.8,0.4-2.7,1
			c-0.4,0.3-0.7,0.7-0.8,1.3c-0.1,1.2-0.3,2.3-0.3,3.5c0,7.7,0,15.5,0,23.2c0,1,0.2,1.9,0.2,2.9c0,1,0,2.1-0.1,3.1
			c-0.1,1.5-0.5,3.1-0.6,4.6c-0.1,1.9,0,3.8,0,5.7c0,0.7,0.2,1.5,0.3,2.2c0,0.2,0.1,0.5,0.3,0.6c0.8,0.6,1.6,1.3,2.8,1
			c0.9-0.2,1.7-0.2,2.6-0.1c0.6,0.1,1.2,0.1,1.8,0.1c3.7,0,7.4,0,11,0c2.2,0,2.2,0,3.6,1.6c0.4,0.4,0.7,0.9,1.1,1.4
			c0.4,0.5,0.4,0.7-0.1,1.1c-0.2,0.2-0.6,0.3-0.7,0.5c-0.7,1.4-1.9,2.2-3.1,3c-0.4,0.3-0.7,0.5-1.1,0.8c-0.9,0.6-1.4,1.5-1.8,2.4
			c-0.5,1,0.1,1.9,1.2,2.1c0.3,0,0.6,0.1,0.9,0.1c1.5,0,3.1,0,4.6,0.2c0.4,0.1,0.7,0,1.1,0c1.8-0.2,3.7-0.2,5.5-0.5
			c3.3-0.5,6.6-0.7,9.9-0.7c4.1,0,8.2,0,12.4,0.1c1.4,0,2.8-0.2,4.1-0.6c1.5-0.5,1.8-1.8,0.7-2.9c-0.1-0.1-0.2-0.2-0.4-0.3
			c-1.6-1.2-2.8-2.8-4.6-3.7c-0.2-0.1-0.3-0.3-0.5-0.4c-0.5-0.5-0.6-0.7-0.1-1.3c0.8-1.1,1.7-2.2,2.6-3.3c0.1-0.2,0.4-0.3,0.6-0.3
			c0.4-0.1,0.9-0.1,1.3-0.1c2.7,0.2,5.4-0.3,8.1-0.6c2.1-0.2,4.1-0.4,6.2-0.3c0.6,0,1.2,0,1.8-0.1c0.5-0.1,0.9-0.4,1.1-1
			c0.1-0.2,0.1-0.4,0.2-0.6c0.5-2.5,0.9-4.9,0.8-7.4C90.3,41.5,90.2,39.3,90.1,37.2z M21.8,32.4c-0.3,0.1-0.7,0.3-1,0.5
			c-0.2,0.1-0.5,0.4-0.7,0c-0.1-0.2-0.1-0.7,0.1-0.8c0.5-0.5,1-0.8,1.5-1.2c0.3-0.2,0.6,0,0.7,0.5C22.4,31.8,22.3,32.2,21.8,32.4z
			 M22.4,36.1c0,0.1,0,0.3,0,0.4c0.1,0.7-0.1,1.3-0.9,1.6c-0.4,0.2-0.8,0.4-1.2,0.5c-0.2,0.1-0.6-0.3-0.5-0.5c0.1-0.3,0.2-0.7,0.4-1
			c0.5-0.5,1.1-0.9,1.7-1.3C22.2,35.7,22.4,35.9,22.4,36.1z M20.8,28.2c-0.4,0.2-0.6,0.1-0.6-0.2c0-0.2,0-0.4,0-0.8
			c-0.3-1.1,0.5-1.8,1.3-2.5c0.2-0.1,0.4,0,0.5,0.2c0,0.1,0.1,0.3,0.1,0.4C22.4,27.2,22.3,27.3,20.8,28.2z M21.6,21.3
			c-0.5,0.3-1,0.6-1.5,0.8c-0.1,0-0.3-0.1-0.3-0.2c-0.1-0.1-0.1-0.3,0-0.4c0.3-0.7,1-1,1.7-1.2c0.1,0,0.3,0.2,0.4,0.3
			C21.8,21,21.8,21.2,21.6,21.3z M22.8,46.1c0,0.7,0,1.3-0.1,2c-0.8,0.4-1.5,0.8-2.3,1.2c-0.1,0-0.3,0-0.4-0.1
			c-0.1-0.2-0.2-0.5-0.1-0.6c0.2-0.3,0.5-0.7,0.9-0.9c0.5-0.4,1-0.8,1.3-1.4c0.4-0.8,0-1.6-0.9-1.8c-0.1,0-0.3,0-0.4,0
			c-0.3-0.1-0.7,0.4-1-0.1c-0.3-0.5-0.1-1.5,0.3-1.8c0.5-0.4,1.1-0.7,1.6-1.1c0.3-0.2,0.6-0.1,0.7,0.2c0.1,0.5,0.2,1,0.2,1.5
			c0,0.4,0,0.7,0,1.1c0,0.4,0,0.7,0,1.1h0C22.8,45.7,22.8,45.9,22.8,46.1z M43.9,62.5c-0.1,0.2-0.1,0.4-0.2,0.6
			c-0.1,0.5-0.4,0.7-0.9,0.7c-0.1,0-0.3,0-0.7,0c0.1,0-0.1,0-0.2,0c-0.7-0.1-0.9-0.4-0.7-1c0.2-0.6,0.4-1.2,0.7-1.8
			c0.2-0.4,0.4-0.5,0.9-0.4C44.5,60.9,44.5,60.9,43.9,62.5z M44.1,56.7c-0.5-0.6-0.9-1.2-1.3-1.8c-0.2-0.2,0-0.6,0.3-0.6
			c0.1,0,0.3,0,0.4,0c2.1,0.1,4.1,0.1,6.2,0.2c1.7,0,3.4,0,5.1-0.1c3.2-0.2,6.5-0.2,9.7-0.3c0.5,0,0.6,0.2,0.5,0.6
			c-0.1,0.3-0.2,0.7-0.4,1C64,57,63,57.9,61.3,57.8c-2.1-0.1-4.1-0.1-6.6-0.2c-0.7,0-1.8-0.1-2.9,0c-2.2,0.1-4.4-0.2-6.6-0.3
			C44.8,57.2,44.4,57,44.1,56.7z M48.2,60.9c-0.2,0.8-0.4,1.7-0.6,2.5c-0.1,0.3,0,0.8-0.4,0.9c-0.6,0.1-1.1-0.2-1.5-0.6
			c-0.1-0.1-0.1-0.3-0.1-0.4c0.2-0.6,0.4-1.2,0.6-1.9c0.3-1.1,0.6-1.2,1.8-1.1c0.1,0,0.2,0.1,0.4,0.2C48.2,60.6,48.2,60.7,48.2,60.9
			z M51.8,63.6c0.1,0.3-0.1,0.5-0.4,0.6c-0.2,0-0.4,0-0.7,0.1c-0.1,0-0.3,0-0.4,0c-0.3,0-0.6-0.3-0.6-0.5c0.1-1.2,0.4-2.3,1.2-3.2
			c0.1-0.1,0.4-0.2,0.6-0.3c0.3-0.1,0.7,0.2,0.6,0.4c-0.1,0.4-0.2,0.7-0.3,1C51.6,62.3,51.6,62.9,51.8,63.6z M68.7,63
			c0.1,0.1,0.1,0.4,0,0.6c0,0.1-0.2,0.2-0.3,0.3c-0.4,0-0.9,0.1-1.3,0.1c-2.1,0-4.3,0-6.4,0v0c-2.4,0-4.8,0-7.3,0
			c-0.3,0-0.6-0.3-0.5-0.5c1.3-3.8,0.1-3.1,4.2-3.1c2.7,0,5.4,0.1,8.1,0.1c0.6,0,1,0.2,1.4,0.6C67.3,61.6,68,62.3,68.7,63z
			 M86.6,31.8c-0.2,0.7-0.1,1.5-0.1,2.2c0,2.3,0,4.6,0,6.9c0,1.1-0.2,2.2-0.3,3.3c-0.1,1,0.2,2,0.3,3.1c0,0.3,0,0.6,0,0.9
			c0,0.4-0.2,0.7-0.6,0.7c-3.1,0.4-6.3,0.8-9.4,1.2c-0.4,0.1-0.9,0.1-1.3,0.1c-3.8,0-7.5,0.1-11.3-0.3c-0.4,0-0.7,0-1.1,0
			c-1.8,0.1-3.7,0.3-5.5,0.3c-1.7,0.1-3.4,0-5.1,0c-0.7,0-1.5,0-2.1-0.4c-0.5-0.3-1.1-0.3-1.7-0.2c-3.8,0.3-7.6,0.7-11.5,0.6
			c-1,0-2.1,0-3.1,0.3c-0.1,0-0.3,0.1-0.4,0.1c-3.2,0.1-6.3,0.6-9.5,0.4c-0.5,0-0.6-0.2-0.3-0.6c0.2-0.4,0.5-0.7,0.7-1.1
			c0.2-0.7,0.7-0.8,1.3-0.8c1.7,0,3.4,0,5.1,0c2.6,0,5.2,0,7.7,0c0,0,0,0,0-0.1c4,0.1,8,0.1,11.9,0.2c1.3,0,2.6,0.2,4,0.2
			c2.2,0,4.4-0.1,6.6-0.2c3.8-0.1,7.7-0.1,11.5-0.1c1.3,0,2.7,0,4,0c0.7,0,1.5-0.1,2.1-0.4c0.8-0.5,1.6-0.5,2.5-0.5
			c0.5,0.1,1,0.1,1.5,0c0.2,0,0.4-0.2,0.4-0.3c-0.3-2.4,0.4-4.7,0.3-7c-0.1-2.3,0-4.7,0-7.1c0-2.3,0.1-4.6,0.1-6.8
			c0-2.4,0-4.7,0-7.1c0-1.8-0.1-3.5-0.1-5.3c0-0.4-0.1-0.7-0.2-1.1c-0.1-0.7-0.2-1.4-0.2-2.2c-0.1-1.1-0.7-1.9-1.7-1.9
			c-1.6-0.2-3.2-0.3-4.8-0.4c-2.7-0.1-5.5-0.2-8.2,0c-3.4,0.2-6.9,0.3-10.3,0.7c-2.3,0.3-4.7,0.6-7,0.6c-2.1,0-4.3,0.3-6.4,0.3
			c-0.4,0-0.9,0-1.3,0c-2.2-0.4-4.4-0.2-6.6-0.1c-0.6,0-1.2,0.1-1.7,0c-1.5-0.2-3.1-0.3-4.6-0.2c-1.6,0.1-3.2,0-4.9,0
			c-0.6,0-1.2,0-1.8,0.1c-1.4,0.3-1.9,1-1.8,2.5c0.1,1.2,0.1,2.5,0.2,3.7c0.1,1-0.4,1.5-1.2,1.8c-0.2,0.1-0.6,0.2-0.6,0.1
			c-0.1-0.2-0.3-0.5-0.2-0.8c0.1-1.2,0.1-2.4,0.4-3.5c0.3-1.1,0.2-2.2,0.1-3.3c-0.1-1,0.1-1.2,1-1.3c0.4,0,0.9,0,1.3,0
			c0.7,0,1.3,0,2,0.1c3,0.2,5.9-0.1,8.8-0.6c1.2-0.2,2.3-0.2,3.5-0.3c1.4,0,2.8,0.1,4.2-0.1c4.4-0.6,8.8-0.3,13.2-0.4
			c1,0,2.1,0,3.1,0c2.1,0,4.1,0,6.2-0.4c2.3-0.4,4.7-0.4,7-0.7c3.5-0.5,7-0.1,10.6-0.1c0.5,0,1,0.2,1.5,0.3c0.7,0.2,1.4,0.4,2.1,0.6
			c1.1,0.3,1.1,0.3,1.2,1.4c0,0.4,0,0.9,0.1,1.3c0.5,1.7,0.4,3.4,0.3,5c0,1.5,0,3.1,0.1,4.6c0.2,2.2,0.2,4.4,0.3,6.6
			C86.9,28.2,87,30,86.6,31.8z M26.5,26.2c0.2-3.9,0.2-7.8,0.2-11.7c0-0.9,0.1-1,1.1-1c4.3,0,8.7,0,13,0v-0.1c3.8,0,7.7,0.1,11.5,0
			c4.1-0.1,8.2-0.6,12.2-1.9c0.6-0.2,1.1-0.3,1.7-0.3c4.5,0,9,0,13.5,0c0.2,0,0.4,0,0.6,0.1c0.1,0,0.2,0.2,0.3,0.3
			c0.1,0.2,0.1,0.4,0.1,0.6c0.2,6.9,0.6,13.8,0.4,20.7c-0.1,3-0.2,6-0.4,9c-0.1,1-0.2,2-0.4,3.1c0,0.3-0.3,0.5-0.7,0.4
			c-0.2-0.1-0.4-0.2-0.6-0.2c-1,0-2,0.2-3.1,0.2c-1,0-2-0.4-3,0c-0.4,0.2-0.9,0.1-1.3,0.1c-2.8,0-5.6,0-8.4,0.1
			c-0.9,0-1.7-0.1-2.6-0.3c-1.3-0.4-2.6-0.5-3.9-0.3c-1.7,0.2-3.5,0.1-5.3,0.1c-2,0-4,0.1-6-0.2c-1-0.1-2.1-0.1-3.1-0.1
			c-4.3,0-8.7,0-13,0c-0.2,0-0.4,0-0.7,0c-1.2,0-1.3-0.1-1.3-1.2c0-1.1,0-2.2,0-3.3c0-0.7-0.1-1.3-0.4-1.9c-0.3-0.4-0.3-1-0.3-1.5
			C26.4,33.4,26.3,29.8,26.5,26.2z"/>
	</g>
</g>
</svg>
