<?xml version="1.0" encoding="utf-8"?>
<!-- Generator: Adobe Illustrator 18.1.1, SVG Export Plug-In . SVG Version: 6.00 Build 0)  -->
<svg version="1.1" id="Layer_1" xmlns="http://www.w3.org/2000/svg" xmlns:xlink="http://www.w3.org/1999/xlink" x="0px" y="0px"
	 viewBox="0 0 105.7 68.9" enable-background="new 0 0 105.7 68.9" xml:space="preserve">
<g id="_x0A_smartphone">
	<g>
		<path fill-rule="evenodd" clip-rule="evenodd" d="M101.4,40.6c0-1.2-0.1-2.4-0.2-3.6c0-0.9-0.1-1.9-0.1-2.8c0-0.6,0.1-1.3,0.1-1.9
			c0-0.3,0.1-0.7,0-1c-0.1-0.4-0.2-0.8-0.3-1.2c-0.1-0.2-0.2-0.5-0.3-0.7c-0.4-0.5-0.8-0.9-1.3-1.3c-0.2-0.1-0.4-0.3-0.6-0.3
			c-0.7-0.1-1.4-0.3-2.1-0.2c-0.9,0.1-1.9,0-2.8-0.1c-1.1-0.1-2.2-0.2-3.3-0.3c-1.5,0-3,0-4.5,0c-0.2,0-0.3,0-0.5,0
			c-0.7,0.2-1.5,0.2-2.3,0.2c-0.6,0-1.1,0.1-1.7,0.2c-0.7,0.2-1.3,0.6-1.6,1.1c-0.4,0.5-0.6,1.1-0.9,1.7C79,30.7,79,31,79,31.2
			c0.1,2.4-0.3,4.8-0.3,7.2c0,0.9,0,1.9,0,2.8c0,2,0.1,4.1,0.2,6.1c0.1,2.1,0,4.2,0,6.3h0c0,0.6,0,1.3,0,1.9c0,1.5,0,3,0.1,4.5
			c0,1.2,0.5,2.2,1.4,3c1.1,0.9,2.4,1.6,3.9,1.7c0.8,0.1,1.7,0,2.5,0.1c1.4,0.2,2.8,0.2,4.2,0.2c1.5,0,3-0.3,4.5-0.2
			c0.4,0,0.9,0,1.2-0.4c0.5-0.5,1-0.6,1.6-0.8c0.2,0,0.4-0.1,0.5-0.2c0.5-0.4,0.9-0.9,1.3-1.4c0.2-0.2,0.4-0.4,0.5-0.7
			c0.1-0.4,0.2-0.9,0.2-1.3c0.1-1.2,0.2-2.5,0.2-3.7c0-3.6,0.3-7.2,0.3-10.8c0-0.1,0-0.2,0-0.2C101.4,43.8,101.4,42.2,101.4,40.6z
			 M79.9,59.9c0,0.1-0.1,0.1-0.1,0.2c-0.1-0.1-0.2-0.1-0.2-0.2c-0.1-0.3,0-0.6,0.1-0.8c0,0,0.1-0.1,0.1-0.1c0.1,0,0.1,0.1,0.1,0.1
			c0,0.1,0,0.3,0,0.4C79.9,59.6,79.9,59.7,79.9,59.9z M82.1,63.5c-0.1,0-0.2-0.1-0.2-0.2C81.9,63.1,82,63,82.1,63
			c0.1,0,0.2,0.1,0.2,0.1C82.4,63.3,82.3,63.5,82.1,63.5z M84.9,59.4C84.9,59.4,84.9,59.4,84.9,59.4C84.9,59.5,84.8,59.5,84.9,59.4
			c0,0.2-0.1,0.3-0.2,0.4c0,0,0,0,0,0.1c0,0-0.1,0-0.1,0c0,0,0,0,0,0.1c0,0,0,0,0-0.1c0,0,0,0,0,0c0,0,0,0,0-0.1c0,0,0,0,0,0
			C84.6,59.7,84.6,59.5,84.9,59.4C84.8,59.5,84.8,59.4,84.9,59.4C84.9,59.4,84.9,59.4,84.9,59.4c0-0.1,0-0.3,0.1-0.3
			c0,0,0.1,0,0.1,0c0,0,0.1,0.1,0.1,0.1C85.1,59.3,85,59.4,84.9,59.4z M86.5,62.1c-0.1,0.2-0.2,0.4-0.5,0.4c-0.1,0-0.3-0.1-0.4-0.2
			c0,0,0-0.2,0-0.3c0.1-0.2,0.3-0.3,0.5-0.3C86.4,61.6,86.6,61.9,86.5,62.1z M86.5,58.3c-0.4,0.1-0.8,0.2-1.2,0.3
			c0,0-0.1-0.1-0.2-0.1c0-0.1,0-0.2,0.1-0.2c0.2-0.3,0.6-0.3,1-0.3c0.1,0,0.2,0,0.3,0.1c0.1,0,0.1,0.1,0.1,0.2
			C86.6,58.2,86.5,58.3,86.5,58.3z M90.6,62.4c-0.5,0.2-1,0.2-1.4,0.2c-0.2,0-0.4-0.1-0.5-0.2c-0.1-0.1-0.2-0.2-0.4-0.3
			c-0.7-0.4-1-1-0.9-1.7c0-0.2,0-0.2,0-0.3c-0.1-0.7,0.2-1.1,0.8-1.3c0.6-0.2,1.1-0.5,1.7-0.7c0.5-0.2,1.2,0.2,1.4,0.6
			c0.2,0.5,0.4,1,0.5,1.6C91.9,61.3,91.5,62.1,90.6,62.4z M95.9,59.9c-0.2,0.3-0.5,0.5-0.6,0.4c-0.2-0.2-0.1-0.4,0-0.6
			c0.1-0.2,0.2-0.4,0.4-0.4c0.1,0,0.3,0.1,0.3,0.3C96,59.6,95.9,59.8,95.9,59.9z M97.7,58.7L97.7,58.7L97.7,58.7L97.7,58.7z
			 M98,43.7c-0.5,3.1-0.4,6.2-0.5,9.4c0,0.2,0,0.5,0,0.7c0,0.4-0.1,0.7-0.4,0.9c-0.1,0.1-0.2,0.2-0.3,0.3c-0.3,0.3-0.6,0.5-1.1,0.5
			c-0.5,0-0.9,0-1.4,0c-1.2-0.1-2.3-0.1-3.5,0c-1.2,0.1-2.5,0.1-3.7,0.1c-0.9,0-1.8,0.1-2.7,0.2c-0.2,0-0.5,0-0.7,0
			c-0.5-0.2-0.9-0.4-1.1-0.9c-0.2-0.5-0.3-0.9-0.3-1.4c0-0.5,0-0.9,0-1.4c0-0.8,0.1-1.7-0.1-2.5c-0.1-0.2,0-0.5,0-0.8
			c0-2.6,0-5.2,0-7.8c0-0.6,0-1.1,0-1.7c0-0.8,0-1.5,0.2-2.2c0.2-0.9,0.2-1.9,0.2-2.8c0-0.6,0-1.3,0.2-1.9c0.1-0.4,0.2-0.5,0.6-0.5
			c1.1-0.1,2.3-0.1,3.4-0.3c1.9-0.2,3.8-0.1,5.6-0.2c1.5,0,2.9,0,4.2,0c0.5,0,0.7,0.1,0.8,0.7c0.1,0.4,0.1,0.9,0.1,1.3
			c0,1.9,0,3.8,0,5.7c0,1.2,0.2,2.5,0.4,3.7C98,43.1,98,43.4,98,43.7z"/>
	</g>
</g>
<g id="_x0A_screen_x0A_">
	<g>
		<path fill-rule="evenodd" clip-rule="evenodd" d="M76.1,36.2c-0.3-4.4-0.4-8.8-0.5-13.2c-0.1-3.5-0.1-6.9-0.1-10.4
			c0-0.4,0-0.7-0.1-1.1c-0.1-1.3-0.2-2.6-0.3-4c-0.1-1.4-0.3-2.8-0.4-4.1c0-0.5-0.3-0.9-0.7-1c-0.5-0.2-1.1-0.4-1.7-0.5
			C71.1,1.9,70,1.8,68.9,2c-1.2,0.2-2.3,0.2-3.5,0.3c-1.2,0.1-2.3,0.2-3.5,0.3c-2.8,0.2-5.6,0.5-8.4,0.6c-4.3,0.1-8.7,0-13,0
			c-6.9,0-13.8-0.2-20.7,0.5c-1.2,0.1-2.5,0-3.8,0.1c-1.6,0.1-3.2,0.2-4.8,0.3C9.6,4.2,8,4.4,6.4,4.5c-1,0-1.8,0.4-2.7,1
			C3.3,5.7,3,6.1,2.9,6.7C2.8,7.9,2.6,9,2.6,10.2c0,7.7,0,15.5,0,23.2c0,1,0.2,1.9,0.2,2.9c0,1,0,2.1-0.1,3.1
			c-0.1,1.5-0.5,3.1-0.6,4.6c-0.1,1.9,0,3.8,0,5.7c0,0.7,0.2,1.5,0.3,2.2c0,0.2,0.1,0.5,0.3,0.6c0.8,0.6,1.6,1.3,2.8,1
			c0.9-0.2,1.7-0.2,2.6-0.1c0.6,0.1,1.2,0.1,1.8,0.1c3.7,0,7.4,0,11,0c2.2,0,2.2,0,3.6,1.6c0.4,0.4,0.7,0.9,1.1,1.4
			c0.4,0.5,0.4,0.7-0.1,1.1c-0.2,0.2-0.6,0.3-0.7,0.5c-0.7,1.4-1.9,2.2-3.1,3c-0.4,0.3-0.7,0.5-1.1,0.8c-0.9,0.6-1.4,1.5-1.8,2.4
			c-0.5,1,0.1,1.9,1.2,2.1c0.3,0,0.6,0.1,0.9,0.1c1.5,0,3.1,0,4.6,0.2c0.4,0.1,0.7,0,1.1,0c1.8-0.2,3.7-0.2,5.5-0.5
			c3.3-0.5,6.6-0.7,9.9-0.7c4.1,0,8.2,0,12.4,0.1c1.4,0,2.8-0.2,4.1-0.6c1.5-0.5,1.8-1.8,0.7-2.9c-0.1-0.1-0.2-0.2-0.4-0.3
			c-1.6-1.2-2.8-2.8-4.6-3.7c-0.2-0.1-0.3-0.3-0.5-0.4c-0.5-0.5-0.6-0.7-0.1-1.3c0.8-1.1,1.7-2.2,2.6-3.3c0.1-0.2,0.4-0.3,0.6-0.3
			c0.4-0.1,0.9-0.1,1.3-0.1c2.7,0.2,5.4-0.3,8.1-0.6c2.1-0.2,4.1-0.4,6.2-0.3c0.6,0,1.2,0,1.8-0.1c0.5-0.1,0.9-0.4,1.1-1
			c0.1-0.2,0.1-0.4,0.2-0.6c0.5-2.5,0.9-4.9,0.8-7.4C76.3,40.5,76.2,38.3,76.1,36.2z M7.8,31.4c-0.3,0.1-0.7,0.3-1,0.5
			c-0.2,0.1-0.5,0.4-0.7,0C6,31.6,6,31.2,6.2,31.1c0.5-0.5,1-0.8,1.5-1.2c0.3-0.2,0.6,0,0.7,0.5C8.4,30.8,8.3,31.2,7.8,31.4z
			 M8.4,35.1c0,0.1,0,0.3,0,0.4c0.1,0.7-0.1,1.3-0.9,1.6c-0.4,0.2-0.8,0.4-1.2,0.5c-0.2,0.1-0.6-0.3-0.5-0.5c0.1-0.3,0.2-0.7,0.4-1
			c0.5-0.5,1.1-0.9,1.7-1.3C8.2,34.7,8.4,34.9,8.4,35.1z M6.8,27.2c-0.4,0.2-0.6,0.1-0.6-0.2c0-0.2,0-0.4,0-0.8
			c-0.3-1.1,0.5-1.8,1.3-2.5c0.2-0.1,0.4,0,0.5,0.2C8,24.1,8,24.2,8,24.4C8.4,26.2,8.3,26.3,6.8,27.2z M7.6,20.3
			c-0.5,0.3-1,0.6-1.5,0.8c-0.1,0-0.3-0.1-0.3-0.2c-0.1-0.1-0.1-0.3,0-0.4c0.3-0.7,1-1,1.7-1.2c0.1,0,0.3,0.2,0.4,0.3
			C7.8,20,7.8,20.2,7.6,20.3z M8.8,45.1c0,0.7,0,1.3-0.1,2c-0.8,0.4-1.5,0.8-2.3,1.2c-0.1,0-0.3,0-0.4-0.1C6,48,5.9,47.7,5.9,47.6
			c0.2-0.3,0.5-0.7,0.9-0.9c0.5-0.4,1-0.8,1.3-1.4c0.4-0.8,0-1.6-0.9-1.8c-0.1,0-0.3,0-0.4,0c-0.3-0.1-0.7,0.4-1-0.1
			c-0.3-0.5-0.1-1.5,0.3-1.8c0.5-0.4,1.1-0.7,1.6-1.1c0.3-0.2,0.6-0.1,0.7,0.2c0.1,0.5,0.2,1,0.2,1.5c0,0.4,0,0.7,0,1.1
			c0,0.4,0,0.7,0,1.1h0C8.8,44.7,8.8,44.9,8.8,45.1z M29.9,61.5c-0.1,0.2-0.1,0.4-0.2,0.6c-0.1,0.5-0.4,0.7-0.9,0.7
			c-0.1,0-0.3,0-0.7,0c0.1,0-0.1,0-0.2,0c-0.7-0.1-0.9-0.4-0.7-1c0.2-0.6,0.4-1.2,0.7-1.8c0.2-0.4,0.4-0.5,0.9-0.4
			C30.5,59.9,30.5,59.9,29.9,61.5z M30.1,55.7c-0.5-0.6-0.9-1.2-1.3-1.8c-0.2-0.2,0-0.6,0.3-0.6c0.1,0,0.3,0,0.4,0
			c2.1,0.1,4.1,0.1,6.2,0.2c1.7,0,3.4,0,5.1-0.1c3.2-0.2,6.5-0.2,9.7-0.3c0.5,0,0.6,0.2,0.5,0.6c-0.1,0.3-0.2,0.7-0.4,1
			C50,56,49,56.9,47.3,56.8c-2.1-0.1-4.1-0.1-6.6-0.2c-0.7,0-1.8-0.1-2.9,0c-2.2,0.1-4.4-0.2-6.6-0.3C30.8,56.2,30.4,56,30.1,55.7z
			 M34.2,59.9c-0.2,0.8-0.4,1.7-0.6,2.5c-0.1,0.3,0,0.8-0.4,0.9c-0.6,0.1-1.1-0.2-1.5-0.6c-0.1-0.1-0.1-0.3-0.1-0.4
			c0.2-0.6,0.4-1.2,0.6-1.9c0.3-1.1,0.6-1.2,1.8-1.1c0.1,0,0.2,0.1,0.4,0.2C34.2,59.6,34.2,59.7,34.2,59.9z M37.8,62.6
			c0.1,0.3-0.1,0.5-0.4,0.6c-0.2,0-0.4,0-0.7,0.1c-0.1,0-0.3,0-0.4,0c-0.3,0-0.6-0.3-0.6-0.5c0.1-1.2,0.4-2.3,1.2-3.2
			c0.1-0.1,0.4-0.2,0.6-0.3c0.3-0.1,0.7,0.2,0.6,0.4c-0.1,0.4-0.2,0.7-0.3,1C37.6,61.3,37.6,61.9,37.8,62.6z M54.7,62
			c0.1,0.1,0.1,0.4,0,0.6c0,0.1-0.2,0.2-0.3,0.3c-0.4,0-0.9,0.1-1.3,0.1c-2.1,0-4.3,0-6.4,0v0c-2.4,0-4.8,0-7.3,0
			c-0.3,0-0.6-0.3-0.5-0.5c1.3-3.8,0.1-3.1,4.2-3.1c2.7,0,5.4,0.1,8.1,0.1c0.6,0,1,0.2,1.4,0.6C53.3,60.6,54,61.3,54.7,62z
			 M72.6,30.8c-0.2,0.7-0.1,1.5-0.1,2.2c0,2.3,0,4.6,0,6.9c0,1.1-0.2,2.2-0.3,3.3c-0.1,1,0.2,2,0.3,3.1c0,0.3,0,0.6,0,0.9
			c0,0.4-0.2,0.7-0.6,0.7c-3.1,0.4-6.3,0.8-9.4,1.2c-0.4,0.1-0.9,0.1-1.3,0.1c-3.8,0-7.5,0.1-11.3-0.3c-0.4,0-0.7,0-1.1,0
			c-1.8,0.1-3.7,0.3-5.5,0.3c-1.7,0.1-3.4,0-5.1,0c-0.7,0-1.5,0-2.1-0.4c-0.5-0.3-1.1-0.3-1.7-0.2c-3.8,0.3-7.6,0.7-11.5,0.6
			c-1,0-2.1,0-3.1,0.3c-0.1,0-0.3,0.1-0.4,0.1c-3.2,0.1-6.3,0.6-9.5,0.4c-0.5,0-0.6-0.2-0.3-0.6c0.2-0.4,0.5-0.7,0.7-1.1
			c0.2-0.7,0.7-0.8,1.3-0.8c1.7,0,3.4,0,5.1,0c2.6,0,5.2,0,7.7,0c0,0,0,0,0-0.1c4,0.1,8,0.1,11.9,0.2c1.3,0,2.6,0.2,4,0.2
			c2.2,0,4.4-0.1,6.6-0.2c3.8-0.1,7.7-0.1,11.5-0.1c1.3,0,2.7,0,4,0c0.7,0,1.5-0.1,2.1-0.4c0.8-0.5,1.6-0.5,2.5-0.5
			c0.5,0.1,1,0.1,1.5,0c0.2,0,0.4-0.2,0.4-0.3c-0.3-2.4,0.4-4.7,0.3-7c-0.1-2.3,0-4.7,0-7.1c0-2.3,0.1-4.6,0.1-6.8
			c0-2.4,0-4.7,0-7.1c0-1.8-0.1-3.5-0.1-5.3c0-0.4-0.1-0.7-0.2-1.1c-0.1-0.7-0.2-1.4-0.2-2.2c-0.1-1.1-0.7-1.9-1.7-1.9
			c-1.6-0.2-3.2-0.3-4.8-0.4c-2.7-0.1-5.5-0.2-8.2,0c-3.4,0.2-6.9,0.3-10.3,0.7c-2.3,0.3-4.7,0.6-7,0.6c-2.1,0-4.3,0.3-6.4,0.3
			c-0.4,0-0.9,0-1.3,0c-2.2-0.4-4.4-0.2-6.6-0.1c-0.6,0-1.2,0.1-1.7,0c-1.5-0.2-3.1-0.3-4.6-0.2c-1.6,0.1-3.2,0-4.9,0
			c-0.6,0-1.2,0-1.8,0.1c-1.4,0.3-1.9,1-1.8,2.5c0.1,1.2,0.1,2.5,0.2,3.7c0.1,1-0.4,1.5-1.2,1.8c-0.2,0.1-0.6,0.2-0.6,0.1
			c-0.1-0.2-0.3-0.5-0.2-0.8c0.1-1.2,0.1-2.4,0.4-3.5c0.3-1.1,0.2-2.2,0.1-3.3C6.2,8.3,6.4,8,7.3,8c0.4,0,0.9,0,1.3,0
			c0.7,0,1.3,0,2,0.1c3,0.2,5.9-0.1,8.8-0.6c1.2-0.2,2.3-0.2,3.5-0.3c1.4,0,2.8,0.1,4.2-0.1c4.4-0.6,8.8-0.3,13.2-0.4
			c1,0,2.1,0,3.1,0c2.1,0,4.1,0,6.2-0.4c2.3-0.4,4.7-0.4,7-0.7c3.5-0.5,7-0.1,10.6-0.1c0.5,0,1,0.2,1.5,0.3c0.7,0.2,1.4,0.4,2.1,0.6
			c1.1,0.3,1.1,0.3,1.2,1.4c0,0.4,0,0.9,0.1,1.3c0.5,1.7,0.4,3.4,0.3,5c0,1.5,0,3.1,0.1,4.6c0.2,2.2,0.2,4.4,0.3,6.6
			C72.9,27.2,73,29,72.6,30.8z M12.5,25.2c0.2-3.9,0.2-7.8,0.2-11.7c0-0.9,0.1-1,1.1-1c4.3,0,8.7,0,13,0v-0.1c3.8,0,7.7,0.1,11.5,0
			c4.1-0.1,8.2-0.6,12.2-1.9c0.6-0.2,1.1-0.3,1.7-0.3c4.5,0,9,0,13.5,0c0.2,0,0.4,0,0.6,0.1c0.1,0,0.2,0.2,0.3,0.3
			c0.1,0.2,0.1,0.4,0.1,0.6c0.2,6.9,0.6,13.8,0.4,20.7c-0.1,3-0.2,6-0.4,9c-0.1,1-0.2,2-0.4,3.1c0,0.3-0.3,0.5-0.7,0.4
			c-0.2-0.1-0.4-0.2-0.6-0.2c-1,0-2,0.2-3.1,0.2c-1,0-2-0.4-3,0c-0.4,0.2-0.9,0.1-1.3,0.1c-2.8,0-5.6,0-8.4,0.1
			c-0.9,0-1.7-0.1-2.6-0.3c-1.3-0.4-2.6-0.5-3.9-0.3c-1.7,0.2-3.5,0.1-5.3,0.1c-2,0-4,0.1-6-0.2c-1-0.1-2.1-0.1-3.1-0.1
			c-4.3,0-8.7,0-13,0c-0.2,0-0.4,0-0.7,0c-1.2,0-1.3-0.1-1.3-1.2c0-1.1,0-2.2,0-3.3c0-0.7-0.1-1.3-0.4-1.9c-0.3-0.4-0.3-1-0.3-1.5
			C12.4,32.4,12.3,28.8,12.5,25.2z"/>
	</g>
</g>
</svg>
