<?xml version="1.0" encoding="utf-8"?>
<!-- Generator: Adobe Illustrator 18.1.1, SVG Export Plug-In . SVG Version: 6.00 Build 0)  -->
<svg version="1.1" id="Layer_1" xmlns="http://www.w3.org/2000/svg" xmlns:xlink="http://www.w3.org/1999/xlink" x="0px" y="0px"
	 viewBox="0 0 105.7 68.9" enable-background="new 0 0 105.7 68.9" xml:space="preserve">
<g id="_x0A_money01">
	<g>
		<path fill-rule="evenodd" clip-rule="evenodd" d="M103.8,5.9c-0.2-1.2-1.2-1.9-2.5-1.8c-0.7,0.1-1.5,0.4-2.1,0.3
			c-1.8-0.5-3.7-0.2-5.5-0.3c-6.7-0.2-13.4-0.4-20-0.5c-5-0.1-10.1,0.1-15.1,0.2C45.4,4,32.4,3.9,19.3,3.9c-1.2,0-2.5-0.2-3.7-0.2
			c-2.5,0-5.1-0.7-7.6,0.3C7.8,4,7.4,3.9,7.2,3.7C6.9,3.4,6.7,3,6.4,2.7C5.9,2.2,5.1,2.3,4.5,2.9C3.9,3.6,3.8,4.4,3.8,5.2
			c0,5.6,0,11.1,0,16.7c0,1.4,0.3,2.9,0.4,4.3c0.3,6,0.6,11.9,0.8,17.9c0,0.3,0,0.6,0,0.9c0.2,3.4,0.4,6.8,0.6,10.2
			c-0.1,0-0.2,0-0.3,0c0,2.5,0,4.9,0,7.4c0,0.9-0.1,1.9,0.8,2.5c0.4,0.3,0.2,0.7,0.2,1.1c0.1,1.6,0.5,2.1,1.9,2.3
			c0.6,0.1,1.2,0.2,1.8,0.2c3.9,0.1,7.8,0.1,11.7,0.2c1.4,0,2.7-0.1,3.9-0.6c1.1-0.4,2.2-0.5,3.3-0.5c4.8,0,9.7,0,14.5,0
			c11.3,0,22.6-0.2,33.9,0.4c0.7,0,1.4,0,2.2,0c1.5-0.1,3.1-0.2,4.6-0.3c2.4-0.1,4.7-0.1,7.1-0.2c2.6-0.2,5.1-0.5,7.7-0.8
			c0.9-0.1,1.9-0.4,1.8-1.7c1.1-1.5,1.1-3.2,1.2-5c0-1.7,0.1-3.5,0-5.2c-0.4-6.7-0.2-13.4,0-20.1c0-0.6,0-1.2,0.1-1.9
			c0.6-5.1,0.9-10.2,1.2-15.4c0.1-1.2,0.3-2.4,0.3-3.7c0.1-2.5,0.1-4.9,0.2-7.4C103.8,6.3,103.8,6.1,103.8,5.9z M96,20.6
			c0,0.9-0.1,1.9-0.1,2.8c-0.1,8.5-0.2,17.1-0.3,25.6c0,3-0.2,6-0.3,8.9c0,0.8-0.2,1-1.1,1.2c-0.6,0.1-1.2,0.3-1.8,0.4
			c-3.2,0.3-6.4,0.5-9.5,0.8C75.1,61.1,67.3,61,59.5,61c-0.9,0-1.9,0-2.7-0.3c-2.1-0.6-4.3-0.5-6.4-0.2c-5.5,0.7-11,1.1-16.6,0.6
			C32,61,30.3,61,28.5,60.9c-3.9-0.1-7.8-0.1-11.7-0.1c-1.2,0-2.4,0-3.6,0.6c-0.9,0.5-1.6-0.1-1.6-1.1c-0.2-5-0.4-10.1-0.6-15.1
			c0,0,0.1,0,0.1,0c0-3.3,0.1-6.6,0-9.9c-0.1-2.7-0.5-5.3-0.5-8c-0.1-6,0-11.9,0.1-17.9c0-0.8,0.4-1.1,1.1-1.1
			c1.6,0,3.3-0.1,4.9,0.1c3.6,0.4,7.2,0.3,10.8,0.4c3.6,0.1,7.2,0,10.8,0.2c14.3,0.7,28.6,0.3,42.9,0.6c4.6,0.1,9.2,0.2,13.9,0.4
			c1.1,0,1.3,0.3,1.3,1.3C96.3,14.4,96.1,17.5,96,20.6z M59.9,32.2c-1-0.5-2-1-3.2-1.1c-0.7-0.1-1.1-0.7-1.1-1.3
			c0.1-1.7,0.2-3.5,0.4-5.2c0.1-0.7,0.7-1,1.4-0.9c0.7,0.2,1.3,0.5,2,0.7c0.6,0.2,1.2,0.4,1.7,0.5c0.7,0.1,1.2-0.4,1.2-1.1
			c0.1-1.4-0.4-2.4-1.7-3c-0.6-0.3-1.3-0.6-2-0.7c-2.3-0.2-2.1-0.9-1.7-2.9c0.1-0.6,0.3-1.2,0.3-1.8c0-0.4-0.2-0.8-0.4-1.1
			c-0.3-0.5-1.1-0.4-1.3,0c-0.6,1.3-1.1,2.7-1.3,4.1c-0.1,0.4-0.1,0.9-0.4,1.1c-0.2,0.3-0.7,0.4-1.1,0.4c-0.1,0-0.4-0.4-0.4-0.7
			c0-1.5,0-3.1,0-4.6c0-0.7-0.2-1.4-0.5-2.1c-0.1-0.3-0.6-0.5-1-0.5c-0.4-0.1-0.8,0.2-0.9,0.6c-0.2,1.3-0.5,2.6-0.7,3.9
			c-0.2,1.3-0.4,2.6-0.5,4c-0.1,0.9-0.5,1.5-1.3,2c-2.1,1.3-3.7,3.3-5.5,5c-0.9,0.9-1.4,2-1.5,3.3c0,1.2,0.5,2,1.7,2.2
			c1.2,0.2,2.4,0.4,3.6,0.6c1.1,0.2,1.2,0.4,1.1,1.7c-0.1,0.9-0.2,1.8-0.2,2.8c0,0,0.1,0,0.1,0c-0.1,1.2-0.1,2.5-0.2,3.7
			c-0.1,0.8-0.7,1.3-1.5,1.1c-1.3-0.3-2.6-0.5-3.8-1.3c-0.5-0.3-1.1-0.5-1.7-0.6c-0.5-0.1-1,0.3-1.2,0.8c-0.3,0.6-0.2,1.2,0.1,1.8
			c1.1,1.9,2.9,2.9,4.8,3.6c0.8,0.3,2.1-0.1,2.5,0.8c0.4,0.8,0.2,1.8,0.3,2.7c0,0.7,0.2,1.4,0.7,2c0.8,1,2.2,1,2.9,0
			c0.3-0.4,0.6-0.9,0.7-1.4c0.3-1.1,0.4-2.2,0.6-3.3c0-0.2,0.3-0.5,0.3-0.4c0.3,0.1,0.5,0.3,0.7,0.5c0.1,0.1,0.2,0.4,0.2,0.6
			c-0.1,1.8,0.9,3.1,1.8,4.5c0.2,0.3,0.6,0.3,0.7,0c0.1-0.4,0.4-0.8,0.4-1.2c0.1-1.3,0.2-2.7,0.2-4c0-1,0.4-1.5,1.2-1.9
			c1.4-0.6,2.7-1.5,3.9-2.4c2.3-1.9,3.3-5.6,1.9-8.3C62.1,33.9,61.3,32.9,59.9,32.2z M47.4,29.8c-0.2,0.2-0.5,0.3-0.7,0.4
			C46.3,30,46,30,45.7,29.9c-0.1,0-0.3-0.3-0.2-0.4c0.6-0.6,1.1-1.1,1.7-1.6c0.1-0.1,0.4,0.1,0.4,0.2C47.8,28.7,47.8,29.3,47.4,29.8
			z M51.9,41.6c0,0.1-0.1,0.2-0.2,0.2c-0.1-0.1-0.2-0.3-0.2-0.4c0-0.4,0.1-0.8,0.2-1.4c0-0.2-0.1-0.6-0.1-0.9c0-0.1,0.3-0.2,0.4-0.3
			c0,0,0.2,0.1,0.2,0.2C52.5,39.9,52.4,40.8,51.9,41.6z M52.2,35.2c0-0.2-0.1-0.3-0.1-0.5c0-0.1,0.1-0.1,0.2-0.2
			c0,0.1,0.1,0.2,0.1,0.2C52.3,34.9,52.3,35,52.2,35.2z M52.7,29.4c0,0.1-0.2,0.2-0.2,0.2c-0.1-0.1-0.3-0.2-0.3-0.3c0-0.5,0-1,0-1.5
			c-0.1-1.2-0.2-2.5,0.6-3.5c0.1-0.1,0.2-0.2,0.3-0.1c0.1,0,0.2,0.1,0.2,0.2C53.3,26,53.3,27.7,52.7,29.4z M58.8,39.4
			c-0.5,0.6-1.2,1.1-1.9,1.5c-0.7,0.4-1.2,0.1-1.2-0.8c0-0.8,0-1.6,0-2.5c0,0,0,0,0,0c0-0.5,0-1,0-1.5c-0.1-2.4,0.6-1.9,2.1-1.2
			C60,36,60.2,37.5,58.8,39.4z M86.9,46.1c-2,0-4.1,1.7-4.6,3.9c-0.2,0.8-0.4,1.6-0.5,2.4c-0.3,1.4,0.5,3.3,1.8,4
			c2.5,1.5,4.8,0.9,6.9-0.6c1.7-1.2,2.4-3.9,1.6-6.1C91.2,47.2,89.6,46,86.9,46.1z M87.7,52.3c-0.7,0-1-0.1-1.1-0.6
			c-0.1-0.6,0.1-1.1,0.6-1.2c0.5-0.2,1.1,0.4,1.1,1.1C88.2,51.8,87.8,52.1,87.7,52.3z M20.1,19.4c0.3-0.3,0.5-0.6,0.8-1
			c1.9-2.5,1.6-5.7-0.8-7.7c-0.3-0.3-0.7-0.5-1.1-0.5c-1.4,0.1-2.9,0.1-4.2,0.9c-2.6,1.6-4.1,5.4-2.3,8.7c0.4,0.7,1,1.1,1.7,1.3
			c0.5,0.1,1,0.1,1.2,0.2C17.5,21.4,19,20.8,20.1,19.4z M17.1,16.6c-0.5,0.1-1-0.6-0.9-1.3c0-0.2,0.3-0.6,0.5-0.6
			c0.5-0.2,1.1,0.5,1.1,1.4C17.7,16.2,17.4,16.5,17.1,16.6z M85.4,39.2c1.4-0.3,2.3-1.3,3.1-2.4c0.4-0.5,0.5-1.1,0.2-1.7
			c-0.3-0.7-1-1.1-1.7-1c-0.6,0.1-1.2,0.3-1.7,0.5c-0.6,0.3-1.1,0.2-1.7-0.1c-1.1-0.7-2.1-0.5-3.2,0.1c-0.4,0.3-0.9,0.6-1.3,0.8
			c-0.4,0.2-0.9,0-0.9-0.5c0-0.3,0.1-0.6,0.2-1.3c-0.1-0.5-0.3-1.4-0.5-2.3c-0.2-0.6-0.9-0.9-1.5-0.8c-2,0.4-3.5,1.7-4.6,3.3
			c-0.4,0.6,0.1,1.5,0.8,1.7c0.3,0.1,0.6,0,0.9,0c0.6,0,1,0,0.8,0.8c-0.2,0.9,0,1.6,0.6,2.3c0.6,0.7,1.4,0.8,2.2,1
			c0.4,0.1,0.8,0,1.2-0.1c0.8-0.2,1.5-0.6,2.3-0.8c0.4-0.1,0.9-0.1,1.2,0C83,39.4,84.2,39.5,85.4,39.2z M34.1,32.2
			c-0.8-1.1-2-1.4-3.2-0.8c-0.6,0.3-1.1,0.8-1.7,1.3c-0.6,0.5-1,0.3-1.2-0.5c-0.2-0.6-0.3-1.2-0.5-1.8c-0.7-1.6-2.2-2.2-3.8-1.5
			c-1.8,0.7-3.2,2.9-3.2,5.1c0.1,0.2,0.3,0.7,0.5,1.1c0.2,0.4,0.8,0.4,1.1,0.1c0.5-0.6,1-1.3,1.5-1.9c0.3-0.3,0.9-0.2,1,0.2
			c0.2,0.8,0.4,1.6,0.7,2.3c0.5,1.5,2.6,2.5,4.4,1.6c0.5-0.3,1-0.7,1.5-1.1c0.4-0.3,0.7-0.3,1.1,0c0.5,0.4,0.9,0.9,1.4,1.2
			c0.9,0.6,2.2,0.1,2.4-1c0.1-0.6,0.1-1.3-0.2-1.8C35.3,33.9,34.7,33,34.1,32.2z M19.8,45.7c-1.9,0.9-3.7,2.9-3.6,6.1
			c0.1,0.4,0.3,1.2,0.6,2.1c0.2,0.6,0.6,1,1.3,1.2c0.6,0.2,1.2,0.4,1.8,0.5c1.7,0.4,3.9-0.5,4.7-2c0.4-0.7,0.6-1.5,0.9-2.2
			c0.8-1.7,0.1-3.2-0.9-4.5C23.7,45.7,21.2,45.1,19.8,45.7z M21.2,52c-0.3,0.2-0.8,0.1-1.1,0c-0.2-0.1-0.3-0.5-0.4-0.6
			c0-1,0.2-1.8,1-2.1c0.3-0.1,0.8-0.1,1.1,0c0.2,0.1,0.3,0.5,0.4,0.8C22.3,50.9,22,51.6,21.2,52z M86.7,23.5c1,0.2,2.9-0.5,3.2-1.3
			c0.4-0.9,0.7-1.9,0.9-2.7c-0.2-0.8-0.4-1.4-0.5-2c-0.2-1-0.8-1.6-1.8-1.8c-0.3-0.1-0.6-0.2-0.9-0.3c-2.1-0.6-3.8,0.6-4.3,2.7
			c0,0.2-0.1,0.4-0.1,0.6C82.9,21.3,84.1,23.1,86.7,23.5z"/>
	</g>
</g>
</svg>
